<svg xmlns="http://www.w3.org/2000/svg" width="1200" height="720" viewBox="0 0 1200 720">
<style>
text{font-family:'Microsoft YaHei','SimHei',sans-serif;fill:#172033}
.title{font-size:30px;font-weight:700}
.box{fill:#f8fafc;stroke:#2f5597;stroke-width:2;rx:12}
.box2{fill:#eef7ff;stroke:#1b75bb;stroke-width:2;rx:12}
.box3{fill:#fff7ed;stroke:#c2410c;stroke-width:2;rx:12}
.box4{fill:#f0fdf4;stroke:#15803d;stroke-width:2;rx:12}
.label{font-size:22px;font-weight:700}
.small{font-size:17px}
.arrow{stroke:#334155;stroke-width:3;marker-end:url(#arrow)}
</style>
<defs><marker id="arrow" markerWidth="10" markerHeight="10" refX="8" refY="3" orient="auto"><path d="M0,0 L0,6 L9,3 z" fill="#334155"/></marker></defs>
<text x="60" y="55" class="title">AI 辅助网络安全实验与渗透测试体系架构</text>
<rect x="55" y="105" width="245" height="145" class="box"/>
<text x="80" y="145" class="label">授权目标层</text>
<text x="80" y="180" class="small">DVWA 本机靶场</text>
<text x="80" y="210" class="small">OWASP Juice Shop</text>
<text x="80" y="240" class="small">源码与运行环境</text>
<rect x="370" y="105" width="265" height="145" class="box2"/>
<text x="395" y="145" class="label">AI 编排层</text>
<text x="395" y="180" class="small">Codex + dvwa skill</text>
<text x="395" y="210" class="small">观察-建模-假设-验证</text>
<text x="395" y="240" class="small">报告自动整理</text>
<rect x="705" y="105" width="430" height="145" class="box3"/>
<text x="730" y="145" class="label">工具执行层</text>
<text x="730" y="180" class="small">Playwright / Python requests / Burp / ZAP</text>
<text x="730" y="210" class="small">ffuf / sqlmap / 源码审阅 / 截图采集</text>
<text x="730" y="240" class="small">主动验证、证据保存、状态清理</text>
<line x1="300" y1="178" x2="370" y2="178" class="arrow"/>
<line x1="635" y1="178" x2="705" y2="178" class="arrow"/>
<rect x="55" y="330" width="1080" height="115" class="box4"/>
<text x="80" y="370" class="label">证据与报告层</text>
<text x="80" y="405" class="small">Markdown 图文报告、请求/响应 JSON、operation-log、截图、ZAP/ffuf/sqlmap 输出、复现步骤、修复建议</text>
<line x1="920" y1="250" x2="920" y2="330" class="arrow"/>
<rect x="55" y="520" width="320" height="120" class="box"/>
<text x="80" y="560" class="label">原理分析</text>
<text x="80" y="595" class="small">漏洞成因、输入流向、认证/授权</text>
<text x="80" y="625" class="small">过滤缺陷、防护机制与绕过路径</text>
<rect x="440" y="520" width="320" height="120" class="box"/>
<text x="465" y="560" class="label">失败分析</text>
<text x="465" y="595" class="small">截图依赖、编码、工具可达性</text>
<text x="465" y="625" class="small">误报、不可利用与环境差异</text>
<rect x="815" y="520" width="320" height="120" class="box"/>
<text x="840" y="560" class="label">安全建设闭环</text>
<text x="840" y="595" class="small">发现-验证-复现-修复-复测</text>
<text x="840" y="625" class="small">沉淀为可复用 Skill 与流程</text>
</svg>